<svg xmlns="http://www.w3.org/2000/svg" viewBox="0 0 32 32">
  <rect width="32" height="32" rx="8" fill="#78350f"/>
  <circle cx="16" cy="13" r="8" fill="#f59e0b" opacity="0.35"/>
  <path d="M16 11.5c-2.1-1.6-4.8-2.2-7.5-1.7v12c2.7-0.5 5.4 0.1 7.5 1.7 2.1-1.6 4.8-2.2 7.5-1.7v-12c-2.7-0.5-5.4 0.1-7.5 1.7z" fill="#fde68a"/>
  <path d="M16 11.5c-2.1-1.6-4.8-2.2-7.5-1.7v12c2.7-0.5 5.4 0.1 7.5 1.7z" fill="#d97706"/>
  <path d="M16 11.5v13.7c2.1-1.6 4.8-2.2 7.5-1.7v-12c-2.7-0.5-5.4 0.1-7.5 1.7z" fill="#fbbf24"/>
  <rect x="15.3" y="11.5" width="1.4" height="13.7" fill="#78350f"/>
</svg>
